<svg width="44" height="24" viewBox="0 0 44 24" fill="none" xmlns="http://www.w3.org/2000/svg">
<rect width="44" height="24" fill="#E5E5E5"/>
<g clip-path="url(#clip0)">
<rect width="1282" height="2282" transform="translate(-102 -2206)" fill="#333333"/>
<path d="M0 12C0 5.37258 5.37258 0 12 0H32C38.6274 0 44 5.37258 44 12C44 18.6274 38.6274 24 32 24H12C5.37258 24 0 18.6274 0 12Z" fill="#545454"/>
<g filter="url(#filter0_d)">
<path d="M22 12C22 6.47715 26.4772 2 32 2C37.5228 2 42 6.47715 42 12C42 17.5228 37.5228 22 32 22C26.4772 22 22 17.5228 22 12Z" fill="#24B47E"/>
</g>
</g>
<defs>
<filter id="filter0_d" x="22" y="2" width="20" height="20" filterUnits="userSpaceOnUse" color-interpolation-filters="sRGB">
<feFlood flood-opacity="0" result="BackgroundImageFix"/>
<feColorMatrix in="SourceAlpha" type="matrix" values="0 0 0 0 0 0 0 0 0 0 0 0 0 0 0 0 0 0 127 0" result="hardAlpha"/>
<feOffset/>
<feColorMatrix type="matrix" values="0 0 0 0 1 0 0 0 0 1 0 0 0 0 1 0 0 0 1 0"/>
<feBlend mode="normal" in2="BackgroundImageFix" result="effect1_dropShadow"/>
<feBlend mode="normal" in="SourceGraphic" in2="effect1_dropShadow" result="shape"/>
</filter>
<clipPath id="clip0">
<rect width="1282" height="2282" fill="white" transform="translate(-102 -2206)"/>
</clipPath>
</defs>
</svg>
